<?xml version="1.0" standalone="no"?>
<!DOCTYPE svg PUBLIC "-//W3C//DTD SVG 20010904//EN"
 "http://www.w3.org/TR/2001/REC-SVG-20010904/DTD/svg10.dtd">
<svg version="1.0" xmlns="http://www.w3.org/2000/svg"
 width="260.000000pt" height="260.000000pt" viewBox="0 0 260.000000 260.000000"
 preserveAspectRatio="xMidYMid meet">
<metadata>
Created by potrace 1.11, written by Peter Selinger 2001-2013
</metadata>
<g transform="translate(0.000000,260.000000) scale(0.100000,-0.100000)"
fill="#000000" stroke="none">
<path d="M0 1300 l0 -1300 1300 0 1300 0 0 1300 0 1300 -1300 0 -1300 0 0
-1300z m900 378 c56 -39 75 -88 75 -198 0 -83 -3 -100 -24 -134 -47 -75 -134
-99 -202 -53 -111 73 -111 311 0 384 45 30 107 30 151 1z m750 -113 c23 -24
25 -35 28 -155 4 -127 4 -130 -17 -130 -20 0 -21 4 -21 120 0 107 -2 122 -20
140 -33 33 -72 24 -95 -21 -10 -19 -15 -60 -15 -134 0 -87 -3 -105 -15 -105
-13 0 -15 23 -15 150 0 127 2 150 15 150 8 0 15 -8 15 -17 0 -15 3 -14 22 5
32 31 87 30 118 -3z m227 3 c21 -20 23 -30 23 -129 0 -82 4 -111 15 -123 8 -8
15 -19 15 -25 0 -17 -38 -13 -48 6 -9 15 -12 14 -37 -5 -51 -41 -116 -25 -135
32 -23 71 8 112 97 130 55 11 58 14 61 43 5 55 -47 81 -96 47 -12 -8 -22 -24
-22 -35 0 -12 -7 -19 -19 -19 -17 0 -19 4 -10 33 5 17 18 40 30 50 31 25 97
23 126 -5z m228 -3 c28 -27 34 -75 10 -75 -8 0 -15 9 -15 20 0 48 -87 64 -110
19 -17 -32 10 -64 65 -78 61 -15 85 -41 85 -91 0 -56 -36 -90 -95 -90 -48 0
-95 35 -95 70 0 11 0 23 -1 27 0 4 4 9 10 11 6 2 17 -13 25 -32 10 -24 23 -37
42 -42 59 -15 110 51 67 87 -10 9 -37 21 -60 28 -86 24 -109 108 -44 158 28
22 89 16 116 -12z m-915 -3 c0 -9 -34 -68 -75 -129 -41 -62 -75 -115 -75 -118
0 -3 36 -5 80 -5 64 0 80 -3 80 -15 0 -12 -18 -15 -100 -15 -89 0 -100 2 -100
18 0 9 34 69 75 132 l74 115 -70 3 c-52 2 -69 6 -69 17 0 12 18 15 90 15 79 0
90 -2 90 -18z m70 -102 c0 -107 2 -122 20 -140 33 -33 72 -24 95 21 10 19 15
60 15 134 0 98 1 105 20 105 19 0 20 -7 20 -150 0 -127 -2 -150 -15 -150 -9 0
-15 9 -15 22 0 21 -1 21 -28 -5 -37 -35 -84 -36 -117 -2 -24 23 -25 29 -25
155 0 109 2 130 15 130 13 0 15 -20 15 -120z m-750 -12 c0 -18 -9 -53 -20 -77
-25 -55 -25 -60 1 -27 32 41 53 35 46 -14 -7 -53 16 -54 40 -3 10 21 26 39 36
41 23 5 22 -21 -3 -43 -11 -10 -20 -22 -20 -27 0 -14 33 -9 54 10 l21 17 -20
-23 c-16 -19 -27 -23 -52 -19 -18 3 -35 1 -38 -4 -15 -24 -34 -7 -37 34 l-3
42 -22 -35 c-13 -19 -25 -39 -28 -45 -3 -6 -7 -5 -11 2 -4 10 -10 10 -25 0
-17 -10 -23 -9 -35 7 -8 11 -14 38 -14 60 0 43 28 110 45 108 11 -1 27 -62 16
-62 -15 0 -43 -69 -36 -90 l7 -22 21 20 c13 14 23 42 28 82 9 64 23 100 39
100 6 0 10 -15 10 -32z m148 -267 c-3 -18 0 -29 6 -28 6 1 11 -8 10 -20 0 -19
2 -21 14 -10 12 10 14 9 10 -3 -7 -23 -38 -25 -38 -3 -1 17 -1 17 -11 1 -17
-30 -28 -20 -22 20 6 39 20 72 29 72 4 0 4 -13 2 -29z m1260 0 c-3 -18 0 -29
6 -28 6 1 11 -8 10 -20 -1 -24 10 -31 19 -13 3 6 4 5 3 -2 -4 -21 -36 -22 -36
-1 -1 17 -1 17 -11 1 -17 -30 -28 -20 -22 20 6 39 20 72 29 72 4 0 4 -13 2
-29z m-942 4 c-3 -8 0 -15 6 -15 9 0 9 -3 0 -12 -7 -7 -12 -21 -12 -31 0 -17
2 -18 18 -6 16 12 16 12 0 -5 -9 -10 -21 -15 -27 -12 -14 9 -14 51 -1 77 13
22 25 26 16 4z m460 -50 c3 -14 11 -22 17 -18 6 3 7 1 3 -5 -10 -17 -26 -15
-26 4 0 8 -4 12 -10 9 -5 -3 -10 3 -10 14 0 29 18 26 26 -4z m-926 -1 c0 -9 5
-12 13 -8 8 5 8 2 -2 -9 -7 -9 -20 -17 -27 -17 -8 0 -16 -11 -20 -25 -6 -26
-24 -35 -24 -12 0 6 5 29 11 50 7 26 15 37 29 37 11 0 20 -7 20 -16z m324 7
c9 -14 -4 -41 -20 -41 -8 0 -14 8 -14 18 0 29 22 43 34 23z m296 -10 c0 -22
-15 -35 -30 -26 -7 4 -7 13 0 26 14 25 30 25 30 0z m162 -6 c-7 -51 -13 -65
-30 -65 -14 0 -14 2 -3 9 17 11 24 71 9 71 -6 0 -8 -7 -5 -15 7 -17 -9 -30
-18 -15 -9 15 15 42 34 38 9 -2 15 -12 13 -23z m308 4 c0 -13 4 -18 12 -13 7
4 8 3 4 -4 -7 -12 -40 -11 -52 1 -8 7 14 37 27 37 5 0 9 -9 9 -21z m170 5 c0
-9 5 -12 12 -8 7 5 8 3 4 -5 -5 -7 -19 -16 -32 -21 -14 -6 -24 -18 -24 -30 0
-11 -5 -20 -11 -20 -11 0 -6 71 7 92 9 14 44 9 44 -8z m307 -4 c-1 -11 -5 -20
-9 -20 -4 0 -8 9 -8 20 0 11 4 20 9 20 6 0 9 -9 8 -20z m12 -66 c-8 -10 -15
-12 -22 -5 -7 7 -5 17 7 30 9 10 16 22 15 27 -1 5 0 14 1 19 2 6 5 -5 7 -23 3
-18 -1 -40 -8 -48z"/>
<path d="M785 1661 c-99 -43 -115 -256 -25 -336 30 -27 100 -27 130 0 41 37
54 75 54 160 0 83 -13 123 -52 158 -23 21 -79 30 -107 18z"/>
<path d="M1806 1419 c-22 -5 -45 -14 -53 -20 -30 -25 -6 -99 32 -99 48 0 85
44 85 100 0 32 -3 33 -64 19z"/>
<path d="M485 1430 c-4 -17 -5 -34 -2 -36 3 -3 8 9 12 26 4 17 5 34 2 36 -3 3
-8 -9 -12 -26z"/>
<path d="M417 1434 c-4 -4 -7 -14 -7 -23 0 -11 3 -12 11 -4 6 6 10 16 7 23 -2
6 -7 8 -11 4z"/>
<path d="M605 1349 c-4 -6 -5 -12 -2 -15 2 -3 7 2 10 11 7 17 1 20 -8 4z"/>
<path d="M485 1129 c-4 -6 -5 -12 -2 -15 2 -3 7 2 10 11 7 17 1 20 -8 4z"/>
<path d="M817 1133 c-4 -3 -7 -11 -7 -17 0 -6 5 -5 12 2 6 6 9 14 7 17 -3 3
-9 2 -12 -2z"/>
<path d="M1111 1124 c0 -11 3 -14 6 -6 3 7 2 16 -1 19 -3 4 -6 -2 -5 -13z"/>
<path d="M1740 1125 c0 -8 2 -15 4 -15 2 0 6 7 10 15 3 8 1 15 -4 15 -6 0 -10
-7 -10 -15z"/>
<path d="M2075 1079 c-4 -6 -5 -12 -2 -15 2 -3 7 2 10 11 7 17 1 20 -8 4z"/>
</g>
</svg>
